<svg viewBox="0 0 1138 1024" xmlns="http://www.w3.org/2000/svg">
    <path d="M207.31035594 844.43076594L122.40604719 337.61817687l229.86028219 191.46134907 210.87414187-335.77734 188.10144188 335.83067156 258.12616312-191.51468063-78.71781375 506.81258907H207.31035594zM89.02030812 284.65964844a56.15844 56.15844 0 1 1 1e-8-112.26354844 56.15844 56.15844 0 0 1 0 112.26354844zM566.23371875 144.29021375A56.15844 56.15844 0 1 1 566.23371875 32.02666625a56.15844 56.15844 0 0 1 0 112.2635475z m477.16007906 140.36943469a56.15844 56.15844 0 1 1 0-112.26354844 56.15844 56.15844 0 0 1 0 112.26354844zM231.94967094 971.36057375a26.66592562 26.66592562 0 1 1 0-53.33185219h675.181245a26.66592562 26.66592562 0 0 1 0 53.33185219H231.89633937z"
          fill="#BD983D"></path>
</svg>
