<svg viewBox="0 0 1024 1024" xmlns="http://www.w3.org/2000/svg">
    <path d="M217.6 490.8L16.8 850.4c-1.2 2-0.4 4.4 1.6 5.6 0.8 0.4 2 0.8 2.8 0.4l184-37.6c2-0.4 4 0.8 4.8 2.8l57.2 182c0.8 2 2.8 3.2 5.2 2.8 0.8-0.4 2-0.8 2.4-2l180.8-327.2c-42-13.2-85.6-34.8-130.8-64.4-45.2-30.4-80.8-70.8-107.2-122z m584.8 11.6l198.8 348c1.2 2 0.4 4.4-1.6 5.6-0.8 0.4-2 0.8-2.8 0.4l-184-37.6c-2-0.4-4 0.8-4.8 2.8l-57.2 182c-0.8 2-2.8 3.2-5.2 2.8-0.8-0.4-1.6-0.8-2.4-2L555.2 668c48.4-3.6 95.6-21.6 141.6-54 46.4-33.2 81.6-70 105.6-111.6z"
          fill="#D2C7B5"></path>
    <path d="M278.822 587.337a329.2 329.2 0 1 0 465.55-465.567 329.2 329.2 0 1 0-465.55 465.567z" fill="#A49273"
    ></path>
    <path d="M513.2 209.2l48.4 91.2 96.8 20-68.4 76.8L601.6 500l-88.4-45.6L422 500l11.6-102.8-68.4-76.8 96.8-20 51.2-91.2"
          fill="#D2C7B5"></path>
</svg>
